<svg width="127" height="127" viewBox="0 0 127 127" fill="none" xmlns="http://www.w3.org/2000/svg">
<path d="M63.3704 126.73C59.6644 126.73 56.9633 123.518 54.357 120.42C52.6294 118.365 50.8432 116.241 49.3139 115.833C47.6615 115.394 44.977 116.363 42.3736 117.3C38.6345 118.652 34.7678 120.039 31.6792 118.253C28.544 116.438 27.8184 112.355 27.1154 108.407C26.6362 105.714 26.1404 102.93 24.9747 101.765C23.809 100.599 21.0238 100.103 18.3318 99.624C14.3824 98.921 10.2993 98.1939 8.48613 95.0588C6.69847 91.9703 8.09106 88.1052 9.43706 84.3662C10.376 81.7629 11.3449 79.071 10.9048 77.4246C10.4961 75.8969 8.37197 74.1092 6.31842 72.3817C3.21179 69.7694 0 67.0685 0 63.3686C0 59.6687 3.21179 56.9632 6.31842 54.3554C8.37197 52.6279 10.4961 50.8403 10.9048 49.3125C11.3449 47.6601 10.376 44.9742 9.43706 42.3709C8.08505 38.6319 6.69847 34.7668 8.48613 31.6783C10.2993 28.5432 14.3824 27.8161 18.3318 27.1131C21.0238 26.6339 23.8074 26.1382 24.9747 24.9725C26.1419 23.8068 26.6362 21.0217 27.1154 18.3298C27.8184 14.382 28.544 10.299 31.6792 8.48439C34.7678 6.69678 38.6345 8.09082 42.3736 9.43678C44.977 10.3742 47.6675 11.3431 49.3154 10.9044C50.8432 10.4958 52.6294 8.37173 54.357 6.31673C56.9693 3.21169 59.6704 0 63.3704 0C67.0704 0 69.7774 3.21169 72.3838 6.31673C74.1114 8.37173 75.8975 10.4958 77.4268 10.9044C79.0717 11.3446 81.7638 10.3742 84.3671 9.43678C88.1062 8.08481 91.973 6.69828 95.0616 8.48439C98.1967 10.299 98.9223 14.382 99.6254 18.3298C100.105 21.0217 100.6 23.8068 101.766 24.9725C102.932 26.1382 105.717 26.6339 108.409 27.1131C112.358 27.8161 116.441 28.5432 118.255 31.6783C120.042 34.7668 118.65 38.6319 117.304 42.3709C116.365 44.9742 115.396 47.6661 115.836 49.3125C116.245 50.8403 118.369 52.6279 120.422 54.3554C123.529 56.9677 126.739 59.6687 126.739 63.3686C126.739 67.0685 123.529 69.7754 120.422 72.3817C118.369 74.1092 116.245 75.8969 115.836 77.4246C115.396 79.077 116.365 81.7629 117.304 84.3662C118.656 88.1052 120.042 91.9703 118.255 95.0588C116.441 98.1939 112.358 98.921 108.409 99.624C105.717 100.103 102.933 100.597 101.766 101.765C100.599 102.932 100.105 105.715 99.6254 108.407C98.9223 112.355 98.1967 116.438 95.0616 118.253C91.973 120.039 88.1062 118.646 84.3671 117.3C81.7638 116.363 79.0718 115.393 77.4253 115.833C75.8975 116.241 74.1114 118.365 72.3838 120.42C69.7819 123.518 67.0809 126.73 63.3704 126.73ZM48.3961 111.633C49.0609 111.628 49.7235 111.71 50.367 111.877C53.1371 112.618 55.3439 115.242 57.4786 117.781C59.3955 120.06 61.5692 122.644 63.3749 122.644C65.1806 122.644 67.3543 120.06 69.2712 117.781C71.4058 115.242 73.6126 112.618 76.3828 111.877C79.264 111.108 82.566 112.298 85.7597 113.449C88.4893 114.431 91.5809 115.544 93.029 114.708C94.5223 113.844 95.1051 110.569 95.6189 107.679C96.2093 104.365 96.8207 100.938 98.8923 98.8654C100.964 96.7924 104.392 96.1825 107.704 95.5936C110.595 95.0784 113.864 94.4955 114.733 93.0023C115.572 91.5557 114.457 88.4627 113.474 85.7347C112.324 82.541 111.135 79.2377 111.905 76.358C112.645 73.588 115.27 71.3813 117.807 69.2466C120.087 67.3283 122.671 65.1547 122.671 63.349C122.671 61.5434 120.087 59.3712 117.807 57.4529C115.27 55.3183 112.645 53.1116 111.905 50.3415C111.135 47.4618 112.324 44.1585 113.474 40.9648C114.457 38.2368 115.578 35.1438 114.733 33.6972C113.87 32.204 110.595 31.6212 107.706 31.1059C104.392 30.5171 100.965 29.9042 98.8923 27.8341C96.8192 25.7641 96.2093 22.3346 95.6189 19.0208C95.1051 16.1306 94.5223 12.8618 93.029 11.992C91.5824 11.1538 88.4893 12.2684 85.7612 13.2509C82.566 14.4015 79.2625 15.5913 76.3828 14.8206C73.6126 14.0816 71.4058 11.4572 69.2712 8.91852C67.3543 6.6397 65.1806 4.05592 63.3749 4.05592C61.5692 4.05592 59.3955 6.6397 57.4786 8.91852C55.3439 11.4572 53.1371 14.0816 50.367 14.8206C47.4872 15.5913 44.1838 14.4015 40.9885 13.2509C38.2605 12.2684 35.1674 11.1478 33.7207 11.992C32.2275 12.8558 31.6446 16.1306 31.1309 19.0208C30.5405 22.3346 29.9291 25.7596 27.8575 27.8341C25.7859 29.9087 22.3593 30.5231 19.0454 31.1149C16.1551 31.6287 12.8862 32.2115 12.0164 33.7062C11.1781 35.1528 12.2928 38.2459 13.2753 40.9738C14.426 44.1675 15.6143 47.4708 14.8451 50.3505C14.1045 53.1206 11.4801 55.3273 8.94282 57.4619C6.66243 59.3802 4.0786 61.5524 4.0786 63.358C4.0786 65.1637 6.66243 67.3373 8.94282 69.2557C11.4801 71.3903 14.1045 73.597 14.8451 76.367C15.6143 79.2467 14.426 82.5501 13.2753 85.7437C12.2928 88.4717 11.1721 91.5647 12.0164 93.0113C12.8802 94.5045 16.1551 95.0874 19.0454 95.6026C22.3503 96.1915 25.7844 96.8044 27.8575 98.8744C29.9306 100.944 30.5405 104.374 31.1309 107.688C31.6446 110.576 32.2275 113.847 33.7207 114.717C35.1689 115.553 38.2605 114.44 40.9885 113.458C43.4763 112.558 46.0285 111.633 48.3961 111.633Z" fill="#E52432"/>
<path d="M57.4968 81.7799L37.7078 60.3405C37.526 60.1438 37.3848 59.9131 37.2921 59.6617C37.1995 59.4104 37.1573 59.1432 37.1679 58.8755C37.1785 58.6079 37.2417 58.3449 37.3539 58.1016C37.4662 57.8584 37.6252 57.6396 37.822 57.4578C38.2198 57.0913 38.7468 56.8976 39.2873 56.9192C39.8278 56.9409 40.3376 57.1762 40.7048 57.5735L57.6365 75.9153L89.7964 44.2445C89.9871 44.0564 90.213 43.9077 90.4612 43.807C90.7094 43.7062 90.975 43.6553 91.2429 43.6573C91.5108 43.6592 91.7756 43.714 92.0223 43.8183C92.269 43.9227 92.4927 44.0747 92.6807 44.2656C92.8687 44.4565 93.0174 44.6826 93.118 44.931C93.2187 45.1793 93.2694 45.4451 93.2673 45.7131C93.2652 45.9811 93.2103 46.246 93.1058 46.4928C93.0013 46.7396 92.8492 46.9633 92.6581 47.1513L57.4968 81.7799Z" fill="#E52432"/>
</svg>
