<svg width="191" height="127" viewBox="0 0 191 127" fill="none" xmlns="http://www.w3.org/2000/svg">
<path d="M189.189 62.8082L180.76 51.5057L160.371 13.9148C159.755 12.7491 158.833 11.7736 157.703 11.0938C156.573 10.414 155.28 10.0555 153.961 10.0572H127.768V7.25259C127.766 5.32982 127.001 3.48648 125.641 2.12687C124.282 0.767261 122.438 0.00238509 120.515 0H19.3412C18.8012 -1.46834e-07 18.2833 0.214405 17.9013 0.596087C17.5193 0.977769 17.3045 1.49549 17.3041 2.03547C17.3041 2.57571 17.5187 3.09382 17.9008 3.47583C18.2828 3.85784 18.8009 4.07245 19.3412 4.07245H120.515C121.358 4.07483 122.165 4.41079 122.76 5.0068C123.355 5.6028 123.69 6.41031 123.691 7.25259V45.1815C123.693 47.1043 124.458 48.9476 125.818 50.3072C127.178 51.6668 129.021 52.4317 130.944 52.4341H174.776C175.272 52.4343 175.761 52.5501 176.204 52.7723C176.648 52.9944 177.033 53.3169 177.33 53.7139L185.924 65.2373C186.333 65.7873 186.554 66.4539 186.555 67.1391V99.8869C186.554 100.73 186.219 101.538 185.623 102.135C185.027 102.731 184.218 103.066 183.375 103.067H168.408C167.348 92.1566 158.125 83.5986 146.94 83.5986C135.754 83.5986 126.532 92.1611 125.471 103.067H85.6619C84.6013 92.1566 75.3791 83.5986 64.1935 83.5986C53.0078 83.5986 43.7856 92.1611 42.725 103.067H19.3336C18.7934 103.067 18.2753 103.282 17.8932 103.664C17.5112 104.046 17.2966 104.564 17.2966 105.104C17.2966 105.371 17.3493 105.636 17.4517 105.883C17.5541 106.13 17.7042 106.355 17.8933 106.544C18.0825 106.733 18.3071 106.883 18.5542 106.985C18.8014 107.087 19.0662 107.14 19.3336 107.139H42.7145C43.7135 118.105 52.9642 126.739 64.1965 126.739C75.4287 126.739 84.6765 118.113 85.6784 107.139H125.465C126.464 118.105 135.715 126.739 146.947 126.739C158.179 126.739 167.427 118.113 168.429 107.139H183.385C185.308 107.137 187.152 106.372 188.511 105.013C189.871 103.653 190.636 101.81 190.638 99.8869V67.1391C190.631 65.5775 190.123 64.0595 189.189 62.8082ZM127.762 45.1815V14.1296H153.955C154.536 14.1298 155.107 14.2892 155.604 14.5906C156.101 14.892 156.506 15.3238 156.775 15.8391L174.42 48.3616H130.944C130.101 48.3608 129.292 48.0256 128.695 47.4294C128.099 46.8332 127.763 46.0248 127.762 45.1815ZM64.195 122.68C59.5558 122.675 55.1081 120.829 51.8277 117.549C48.5472 114.269 46.7021 109.821 46.6969 105.182C46.7021 100.543 48.5472 96.0955 51.8277 92.8152C55.1081 89.5349 59.5558 87.6897 64.195 87.6846C68.8341 87.6897 73.2818 89.5349 76.5622 92.8152C79.8426 96.0955 81.6878 100.543 81.693 105.182C81.6878 109.821 79.8426 114.269 76.5622 117.549C73.2818 120.829 68.8341 122.675 64.195 122.68ZM146.94 122.68C142.3 122.675 137.853 120.829 134.572 117.549C131.292 114.269 129.447 109.821 129.442 105.182C129.447 100.543 131.292 96.0955 134.572 92.8152C137.853 89.5349 142.3 87.6897 146.94 87.6846C151.579 87.6897 156.027 89.5349 159.307 92.8152C162.587 96.0955 164.433 100.543 164.438 105.182C164.433 109.821 162.587 114.269 159.307 117.549C156.027 120.829 151.579 122.675 146.94 122.68Z" fill="#E52432"/>
<path d="M12.464 29.2728H75.0757C75.3436 29.2728 75.6089 29.22 75.8563 29.1173C76.1038 29.0147 76.3286 28.8642 76.5178 28.6746C76.707 28.485 76.8569 28.2599 76.959 28.0122C77.0611 27.7646 77.1134 27.4992 77.1128 27.2313C77.1128 26.6911 76.8982 26.173 76.5162 25.791C76.1341 25.4089 75.616 25.1943 75.0757 25.1943H12.464C11.9238 25.1943 11.4056 25.4089 11.0236 25.791C10.6416 26.173 10.427 26.6911 10.427 27.2313C10.4264 27.4992 10.4786 27.7646 10.5808 28.0122C10.6829 28.2599 10.8328 28.485 11.022 28.6746C11.2112 28.8642 11.436 29.0147 11.6834 29.1173C11.9309 29.22 12.1961 29.2728 12.464 29.2728Z" fill="#E52432"/>
<path d="M67.186 50.3983C67.186 49.8581 66.9714 49.34 66.5894 48.958C66.2074 48.5759 65.6893 48.3613 65.149 48.3613H2.03554C1.49554 48.3617 0.97782 48.5765 0.596127 48.9585C0.214434 49.3404 -1.46838e-07 49.8583 0 50.3983C0 50.9381 0.214464 51.4559 0.5962 51.8376C0.977936 52.2193 1.49568 52.4338 2.03554 52.4338H65.1565C65.6952 52.4318 66.2112 52.2165 66.5915 51.8351C66.9719 51.4536 67.1856 50.937 67.186 50.3983Z" fill="#E52432"/>
<path d="M53.9512 75.3407C53.9512 75.0728 53.8983 74.8076 53.7957 74.5601C53.693 74.3127 53.5426 74.0879 53.3529 73.8987C53.1633 73.7095 52.9382 73.5596 52.6906 73.4575C52.4429 73.3554 52.1775 73.3031 51.9096 73.3037H12.4594C11.9191 73.3037 11.401 73.5183 11.019 73.9003C10.6369 74.2823 10.4224 74.8005 10.4224 75.3407C10.4228 75.8807 10.6375 76.3984 11.0195 76.7801C11.4015 77.1618 11.9194 77.3762 12.4594 77.3762H51.9096C52.1774 77.3768 52.4426 77.3245 52.6902 77.2225C52.9378 77.1205 53.1628 76.9707 53.3524 76.7817C53.542 76.5926 53.6925 76.368 53.7952 76.1208C53.898 75.8735 53.951 75.6084 53.9512 75.3407Z" fill="#E52432"/>
</svg>
