<svg width="153" height="127" viewBox="0 0 153 127" fill="none" xmlns="http://www.w3.org/2000/svg">
<path d="M136.013 10.6791C134.693 6.74708 131.867 3.49907 128.156 1.64748C124.444 -0.204116 120.15 -0.508118 116.215 0.802155L25.9091 30.9872C22.6885 32.0534 19.9061 34.1455 17.9878 36.9434C16.4183 39.2336 15.4795 41.8966 15.2657 44.6647C11.1851 44.7681 7.30607 46.4604 4.4547 49.3813C1.60334 52.3021 0.00495551 56.2207 0 60.3026V111.098C0.00477109 115.245 1.65456 119.222 4.5874 122.154C7.52024 125.087 11.4967 126.737 15.6443 126.742H110.862C115.01 126.737 118.986 125.087 121.919 122.154C124.852 119.222 126.502 115.245 126.506 111.098V83.908L142.236 78.6504C146.169 77.3312 149.417 74.5061 151.269 70.795C153.121 67.0838 153.425 62.7896 152.115 58.8544L136.013 10.6791ZM26.8886 33.918L117.194 3.73294C120.352 2.6812 123.798 2.92498 126.777 4.41078C129.755 5.89659 132.023 8.50309 133.082 11.6585L134.073 14.6253L43.1743 44.6587H18.3604C18.5777 42.2312 19.5011 39.9205 21.0166 38.0118C22.5322 36.1031 24.5735 34.6799 26.8886 33.918ZM123.416 111.098C123.412 114.426 122.088 117.617 119.735 119.97C117.381 122.324 114.19 123.648 110.862 123.652H15.6443C12.316 123.648 9.12509 122.324 6.77158 119.97C4.41808 117.617 3.09412 114.426 3.09015 111.098V60.3026C3.09412 56.9744 4.41811 53.7838 6.77166 51.4306C9.12521 49.0774 12.3161 47.7538 15.6443 47.7502H110.862C114.19 47.7538 117.381 49.0774 119.735 51.4306C122.088 53.7838 123.412 56.9744 123.416 60.3026V111.098ZM141.257 75.7196L126.506 80.6498V60.3026C126.502 56.155 124.852 52.1787 121.919 49.246C118.986 46.3132 115.01 44.6635 110.862 44.6587H53.026L135.056 17.5561L149.187 59.8339C150.238 62.9921 149.994 66.4384 148.507 69.4165C147.02 72.3946 144.413 74.6614 141.257 75.7196Z" fill="#E52432"/>
<path d="M18.8456 93.8092H50.6705C51.08 93.8092 51.4727 93.6468 51.7625 93.3575C52.0523 93.0683 52.2155 92.6759 52.2163 92.2665C52.2163 91.8565 52.0534 91.4633 51.7635 91.1734C51.4736 90.8836 51.0805 90.7207 50.6705 90.7207H18.8456C18.4359 90.7211 18.0431 90.8841 17.7536 91.174C17.464 91.4638 17.3013 91.8568 17.3013 92.2665C17.3021 92.6756 17.4651 93.0678 17.7546 93.357C18.0441 93.6462 18.4364 93.8088 18.8456 93.8092Z" fill="#E52432"/>
<path d="M70.1138 103.648H18.829C18.419 103.648 18.0258 103.811 17.7359 104.101C17.446 104.391 17.2832 104.784 17.2832 105.194C17.2836 105.604 17.4466 105.997 17.7364 106.286C18.0263 106.576 18.4193 106.738 18.829 106.738H70.1138C70.5234 106.738 70.9162 106.576 71.2058 106.286C71.4954 105.997 71.6582 105.604 71.6582 105.194C71.6582 104.785 71.4955 104.392 71.206 104.102C70.9164 103.812 70.5235 103.649 70.1138 103.648Z" fill="#E52432"/>
</svg>
